<svg xmlns="http://www.w3.org/2000/svg" xmlns:xlink="http://www.w3.org/1999/xlink" width="500" zoomAndPan="magnify" viewBox="0 0 375 374.999991" height="500" preserveAspectRatio="xMidYMid meet" version="1.0"><defs><g/><clipPath id="c550ae5d93"><path d="M 37.5 164 L 61 164 L 61 246 L 37.5 246 Z M 37.5 164 " clip-rule="nonzero"/></clipPath><clipPath id="560aee513a"><path d="M 63 129.1875 L 145 129.1875 L 145 183 L 63 183 Z M 63 129.1875 " clip-rule="nonzero"/></clipPath><clipPath id="7b998e87ac"><path d="M 146 129.1875 L 228 129.1875 L 228 183 L 146 183 Z M 146 129.1875 " clip-rule="nonzero"/></clipPath><clipPath id="49a100a2b9"><path d="M 230 129.1875 L 312 129.1875 L 312 183 L 230 183 Z M 230 129.1875 " clip-rule="nonzero"/></clipPath><clipPath id="7259bc9797"><path d="M 314 164 L 337.5 164 L 337.5 246 L 314 246 Z M 314 164 " clip-rule="nonzero"/></clipPath><clipPath id="fe855033df"><path d="M 276 242 L 311 242 L 311 246.1875 L 276 246.1875 Z M 276 242 " clip-rule="nonzero"/></clipPath><clipPath id="80c0809728"><path d="M 131.25 129.1875 L 246.148438 129.1875 L 246.148438 182.550781 L 131.25 182.550781 Z M 131.25 129.1875 " clip-rule="nonzero"/></clipPath></defs><g clip-path="url(#c550ae5d93)"><path fill="#000000" d="M 53.726562 164.378906 L 44.398438 164.378906 C 40.585938 164.378906 37.5 167.476562 37.5 171.296875 L 37.5 238.675781 C 37.5 242.5 40.585938 245.601562 44.398438 245.601562 L 53.726562 245.601562 C 57.535156 245.601562 60.625 242.5 60.625 238.675781 L 60.625 171.296875 C 60.625 167.476562 57.535156 164.378906 53.726562 164.378906 Z M 53.726562 164.378906 " fill-opacity="1" fill-rule="nonzero"/></g><path fill="#000000" d="M 304.628906 185.519531 L 70.136719 185.519531 C 66.324219 185.519531 63.234375 188.613281 63.234375 192.441406 L 63.234375 209.816406 C 63.234375 213.640625 66.324219 216.738281 70.136719 216.738281 L 304.628906 216.738281 C 308.441406 216.738281 311.53125 213.640625 311.53125 209.816406 L 311.53125 192.441406 C 311.53125 188.613281 308.441406 185.519531 304.628906 185.519531 Z M 304.628906 185.519531 " fill-opacity="1" fill-rule="nonzero"/><g clip-path="url(#560aee513a)"><path fill="#000000" d="M 69.527344 182.671875 L 137.980469 182.671875 C 141.457031 182.671875 144.273438 179.574219 144.273438 175.75 L 144.273438 136.273438 C 144.273438 132.445312 141.457031 129.351562 137.980469 129.351562 L 69.527344 129.351562 C 66.050781 129.351562 63.234375 132.445312 63.234375 136.273438 L 63.234375 175.75 C 63.234375 179.574219 66.050781 182.671875 69.527344 182.671875 Z M 69.527344 182.671875 " fill-opacity="1" fill-rule="nonzero"/></g><g clip-path="url(#7b998e87ac)"><path fill="#000000" d="M 153.15625 182.671875 L 221.609375 182.671875 C 225.082031 182.671875 227.902344 179.574219 227.902344 175.75 L 227.902344 136.273438 C 227.902344 132.445312 225.082031 129.351562 221.609375 129.351562 L 153.15625 129.351562 C 149.679688 129.351562 146.863281 132.445312 146.863281 136.273438 L 146.863281 175.75 C 146.863281 179.574219 149.679688 182.671875 153.15625 182.671875 Z M 153.15625 182.671875 " fill-opacity="1" fill-rule="nonzero"/></g><g clip-path="url(#49a100a2b9)"><path fill="#000000" d="M 305.230469 129.351562 L 236.785156 129.351562 C 233.304688 129.351562 230.492188 132.445312 230.492188 136.273438 L 230.492188 175.75 C 230.492188 179.574219 233.304688 182.671875 236.785156 182.671875 L 305.230469 182.671875 C 308.710938 182.671875 311.53125 179.574219 311.53125 175.75 L 311.53125 136.273438 C 311.53125 132.445312 308.710938 129.351562 305.230469 129.351562 Z M 305.230469 129.351562 " fill-opacity="1" fill-rule="nonzero"/></g><g clip-path="url(#7259bc9797)"><path fill="#000000" d="M 330.601562 164.457031 L 321.273438 164.457031 C 317.464844 164.457031 314.378906 167.558594 314.378906 171.382812 L 314.378906 238.757812 C 314.378906 242.582031 317.464844 245.679688 321.273438 245.679688 L 330.601562 245.679688 C 334.410156 245.679688 337.503906 242.582031 337.503906 238.757812 L 337.503906 171.382812 C 337.503906 167.558594 334.410156 164.457031 330.601562 164.457031 Z M 330.601562 164.457031 " fill-opacity="1" fill-rule="nonzero"/></g><path fill="#000000" d="M 304.628906 219.5625 L 70.136719 219.5625 C 66.324219 219.5625 63.234375 222.660156 63.234375 226.484375 L 63.234375 232.726562 C 63.234375 236.550781 66.324219 239.648438 70.136719 239.648438 L 304.628906 239.648438 C 308.441406 239.648438 311.53125 236.550781 311.53125 232.726562 L 311.53125 226.484375 C 311.53125 222.660156 308.441406 219.5625 304.628906 219.5625 Z M 304.628906 219.5625 " fill-opacity="1" fill-rule="nonzero"/><path fill="#000000" d="M 95.980469 242.089844 L 66.59375 242.089844 C 65.523438 242.089844 64.65625 242.964844 64.65625 244.035156 C 64.65625 245.109375 65.523438 245.980469 66.59375 245.980469 L 95.980469 245.980469 C 97.054688 245.980469 97.921875 245.109375 97.921875 244.035156 C 97.921875 242.964844 97.054688 242.089844 95.980469 242.089844 Z M 95.980469 242.089844 " fill-opacity="1" fill-rule="nonzero"/><g clip-path="url(#fe855033df)"><path fill="#000000" d="M 308.167969 242.175781 L 278.777344 242.175781 C 277.707031 242.175781 276.835938 243.046875 276.835938 244.121094 C 276.835938 245.195312 277.707031 246.0625 278.777344 246.0625 L 308.167969 246.0625 C 309.242188 246.0625 310.109375 245.195312 310.109375 244.121094 C 310.109375 243.046875 309.242188 242.175781 308.167969 242.175781 Z M 308.167969 242.175781 " fill-opacity="1" fill-rule="nonzero"/></g><g clip-path="url(#80c0809728)"><path fill="#000000" d="M 131.25 129.1875 L 246.105469 129.1875 L 246.105469 182.550781 L 131.25 182.550781 Z M 131.25 129.1875 " fill-opacity="1" fill-rule="nonzero"/></g><g fill="#ffffff" fill-opacity="1"><g transform="translate(100.652343, 166.36874)"><g><path d="M 9.609375 0.21875 C 11.117188 0.21875 12.582031 -0.148438 14 -0.890625 C 15.414062 -1.640625 16.582031 -2.742188 17.5 -4.203125 C 18.414062 -5.660156 18.875 -7.472656 18.875 -9.640625 C 18.875 -10.285156 18.753906 -10.894531 18.515625 -11.46875 C 18.117188 -12.300781 17.582031 -12.816406 16.90625 -13.015625 C 16.238281 -13.222656 15.582031 -13.328125 14.9375 -13.328125 L 14.234375 -13.328125 L 13.078125 -13.234375 C 12.234375 -13.148438 11.582031 -13.054688 11.125 -12.953125 C 10.570312 -12.773438 10.113281 -12.4375 9.75 -11.9375 C 9.382812 -11.4375 9.203125 -10.878906 9.203125 -10.265625 C 9.203125 -9.578125 9.515625 -8.9375 10.140625 -8.34375 C 10.242188 -8.257812 10.347656 -8.125 10.453125 -7.9375 C 10.554688 -7.75 10.609375 -7.5625 10.609375 -7.375 C 10.609375 -7.207031 10.566406 -7.085938 10.484375 -7.015625 C 10.398438 -6.941406 10.265625 -6.878906 10.078125 -6.828125 C 9.703125 -6.828125 9.28125 -7.164062 8.8125 -7.84375 C 8.375 -8.601562 8.15625 -9.613281 8.15625 -10.875 C 8.15625 -11.75 8.253906 -12.65625 8.453125 -13.59375 C 8.648438 -14.53125 8.988281 -15.320312 9.46875 -15.96875 C 9.957031 -16.625 10.625 -16.953125 11.46875 -16.953125 C 12.09375 -16.953125 12.828125 -16.664062 13.671875 -16.09375 C 13.984375 -15.90625 14.328125 -15.8125 14.703125 -15.8125 C 15.335938 -15.8125 15.914062 -16.039062 16.4375 -16.5 C 17.132812 -17.113281 17.484375 -17.96875 17.484375 -19.0625 C 17.484375 -20.78125 16.695312 -22.269531 15.125 -23.53125 C 13.5625 -24.789062 11.773438 -25.421875 9.765625 -25.421875 C 8.421875 -25.421875 7.085938 -25.054688 5.765625 -24.328125 C 4.441406 -23.609375 3.285156 -22.421875 2.296875 -20.765625 C 0.765625 -18.097656 0 -15.25 0 -12.21875 C 0 -10.101562 0.351562 -8.140625 1.0625 -6.328125 C 1.78125 -4.523438 2.738281 -3.054688 3.9375 -1.921875 C 4.71875 -1.203125 5.59375 -0.664062 6.5625 -0.3125 C 7.539062 0.0390625 8.554688 0.21875 9.609375 0.21875 Z M 9.609375 0.21875 "/></g></g></g><g fill="#ffffff" fill-opacity="1"><g transform="translate(119.898866, 166.36874)"><g><path d="M 6.765625 0.6875 C 7.671875 0.6875 8.734375 0.664062 9.953125 0.625 C 10.835938 0.601562 11.8125 0.585938 12.875 0.578125 C 13.945312 0.566406 14.878906 0.242188 15.671875 -0.390625 C 16.460938 -1.035156 16.859375 -1.9375 16.859375 -3.09375 C 16.859375 -4.238281 16.554688 -5.203125 15.953125 -5.984375 C 15.359375 -6.765625 14.597656 -7.21875 13.671875 -7.34375 C 11.753906 -7.34375 10.253906 -7.351562 9.171875 -7.375 C 9.023438 -7.394531 8.929688 -7.46875 8.890625 -7.59375 C 8.859375 -7.71875 8.84375 -7.882812 8.84375 -8.09375 C 8.84375 -8.300781 8.863281 -8.445312 8.90625 -8.53125 C 8.957031 -8.613281 9.078125 -8.664062 9.265625 -8.6875 C 9.453125 -8.707031 9.765625 -8.726562 10.203125 -8.75 L 11.65625 -8.8125 C 11.925781 -8.8125 12.304688 -8.8125 12.796875 -8.8125 C 13.296875 -8.8125 13.796875 -8.890625 14.296875 -9.046875 C 15.429688 -9.378906 16 -10.5625 16 -12.59375 C 16 -13.476562 15.832031 -14.128906 15.5 -14.546875 C 14.925781 -15.222656 14 -15.5625 12.71875 -15.5625 C 11.332031 -15.5625 10.421875 -15.578125 9.984375 -15.609375 C 9.546875 -15.640625 9.285156 -15.707031 9.203125 -15.8125 C 9.117188 -15.914062 9.078125 -16.070312 9.078125 -16.28125 L 9.078125 -16.40625 L 9.046875 -16.921875 C 9.046875 -17.066406 9.140625 -17.160156 9.328125 -17.203125 C 9.742188 -17.203125 10.363281 -17.234375 11.1875 -17.296875 C 12.25 -17.378906 13.191406 -17.421875 14.015625 -17.421875 C 14.960938 -17.421875 15.664062 -17.660156 16.125 -18.140625 C 16.84375 -18.898438 17.203125 -19.878906 17.203125 -21.078125 C 17.203125 -22.191406 16.957031 -23.0625 16.46875 -23.6875 C 15.550781 -24.820312 14.082031 -25.390625 12.0625 -25.390625 L 4.5 -25.390625 C 2.488281 -25.265625 1.378906 -24.4375 1.171875 -22.90625 C 1.128906 -22.5625 1.109375 -21.5 1.109375 -19.71875 C 1.109375 -18.75 1.113281 -17.757812 1.125 -16.75 C 1.132812 -15.75 1.144531 -14.898438 1.15625 -14.203125 C 1.164062 -13.515625 1.179688 -13.171875 1.203125 -13.171875 L 1.171875 -6.734375 C 1.171875 -4.578125 1.285156 -2.96875 1.515625 -1.90625 C 1.742188 -0.84375 2.253906 -0.144531 3.046875 0.1875 C 3.847656 0.519531 5.085938 0.6875 6.765625 0.6875 Z M 6.765625 0.6875 "/></g></g></g><g fill="#ffffff" fill-opacity="1"><g transform="translate(137.727891, 166.36874)"><g><path d="M 5.078125 0.53125 C 6.378906 0.53125 7.410156 0.140625 8.171875 -0.640625 C 8.941406 -1.429688 9.359375 -2.550781 9.421875 -4 L 9.515625 -7.3125 C 9.515625 -7.4375 9.578125 -7.5 9.703125 -7.5 L 9.859375 -7.46875 C 10.046875 -7.320312 10.273438 -7.097656 10.546875 -6.796875 C 10.929688 -6.398438 11.363281 -6 11.84375 -5.59375 C 12.320312 -5.1875 12.835938 -4.984375 13.390625 -4.984375 C 13.828125 -5.023438 14.28125 -5.21875 14.75 -5.5625 C 15.226562 -5.90625 15.675781 -6.273438 16.09375 -6.671875 C 16.507812 -7.078125 16.890625 -7.394531 17.234375 -7.625 L 17.421875 -7.6875 C 17.648438 -7.6875 17.785156 -7.582031 17.828125 -7.375 L 17.796875 -6.859375 C 17.753906 -6.585938 17.734375 -6.285156 17.734375 -5.953125 C 17.816406 -4.359375 17.9375 -3.195312 18.09375 -2.46875 C 18.25 -1.75 18.5625 -1.144531 19.03125 -0.65625 C 19.820312 0.0507812 20.722656 0.40625 21.734375 0.40625 C 22.453125 0.40625 23.109375 0.210938 23.703125 -0.171875 C 24.304688 -0.554688 24.710938 -1.171875 24.921875 -2.015625 L 24.953125 -2.140625 C 24.992188 -2.265625 25.035156 -2.460938 25.078125 -2.734375 C 25.328125 -4.179688 25.472656 -9.472656 25.515625 -18.609375 C 25.515625 -19.910156 25.46875 -20.929688 25.375 -21.671875 C 25.28125 -22.410156 25.078125 -23.101562 24.765625 -23.75 C 24.171875 -24.757812 23.304688 -25.265625 22.171875 -25.265625 C 21.609375 -25.265625 21.023438 -25.109375 20.421875 -24.796875 C 19.828125 -24.492188 19.28125 -24 18.78125 -23.3125 C 16.90625 -20.6875 15.613281 -18.859375 14.90625 -17.828125 C 14.144531 -16.710938 13.695312 -16.109375 13.5625 -16.015625 C 13.425781 -15.921875 13.335938 -15.875 13.296875 -15.875 C 13.253906 -15.875 13.195312 -15.90625 13.125 -15.96875 C 13.050781 -16.03125 12.984375 -16.113281 12.921875 -16.21875 L 7.625 -23.78125 C 7.207031 -24.351562 6.734375 -24.769531 6.203125 -25.03125 C 5.679688 -25.289062 5.15625 -25.421875 4.625 -25.421875 C 3.8125 -25.421875 3.109375 -25.113281 2.515625 -24.5 C 2.140625 -24.125 1.835938 -23.554688 1.609375 -22.796875 C 1.378906 -22.046875 1.242188 -20.757812 1.203125 -18.9375 C 1.203125 -11.539062 1.191406 -7.128906 1.171875 -5.703125 L 1.171875 -4.125 C 1.171875 -3.625 1.179688 -3.3125 1.203125 -3.1875 C 1.429688 -1.988281 1.957031 -1.066406 2.78125 -0.421875 C 3.613281 0.210938 4.378906 0.53125 5.078125 0.53125 Z M 5.078125 0.53125 "/></g></g></g><g fill="#ffffff" fill-opacity="1"><g transform="translate(164.817919, 166.36874)"><g><path d="M 10.203125 0.59375 C 12.140625 0.59375 13.796875 0.078125 15.171875 -0.953125 C 16.546875 -1.992188 17.601562 -3.28125 18.34375 -4.8125 C 19.09375 -6.351562 19.46875 -7.878906 19.46875 -9.390625 C 19.613281 -11.585938 19.6875 -13.539062 19.6875 -15.25 C 19.6875 -16.53125 19.664062 -17.660156 19.625 -18.640625 L 19.59375 -20.734375 C 19.59375 -21.734375 19.351562 -22.566406 18.875 -23.234375 C 18.40625 -23.910156 17.847656 -24.410156 17.203125 -24.734375 C 16.566406 -25.066406 15.988281 -25.234375 15.46875 -25.234375 C 14.476562 -25.234375 13.597656 -24.789062 12.828125 -23.90625 C 12.066406 -23.019531 11.65625 -22.003906 11.59375 -20.859375 C 11.53125 -18.609375 11.5 -16.484375 11.5 -14.484375 C 11.5 -12.390625 11.457031 -10.976562 11.375 -10.25 C 11.289062 -9.53125 11.003906 -9.171875 10.515625 -9.171875 C 10.054688 -9.171875 9.769531 -9.5 9.65625 -10.15625 C 9.539062 -10.820312 9.484375 -11.632812 9.484375 -12.59375 L 9.484375 -14.703125 L 9.453125 -16.28125 L 9.484375 -18.359375 C 9.484375 -19.679688 9.359375 -20.828125 9.109375 -21.796875 C 9.003906 -22.046875 8.84375 -22.382812 8.625 -22.8125 C 7.8125 -24.382812 6.722656 -25.171875 5.359375 -25.171875 C 3.484375 -25.171875 2.210938 -24.40625 1.546875 -22.875 C 0.992188 -21.632812 0.71875 -19.238281 0.71875 -15.6875 C 0.71875 -13.75 0.789062 -11.742188 0.9375 -9.671875 C 1.007812 -8.617188 1.226562 -7.5 1.59375 -6.3125 C 1.957031 -5.125 2.5 -4.007812 3.21875 -2.96875 C 3.945312 -1.9375 4.882812 -1.082031 6.03125 -0.40625 C 7.175781 0.257812 8.566406 0.59375 10.203125 0.59375 Z M 12.5625 -26.46875 C 13.082031 -26.46875 13.566406 -26.644531 14.015625 -27 C 14.472656 -27.351562 14.703125 -27.890625 14.703125 -28.609375 C 14.703125 -29.335938 14.476562 -29.875 14.03125 -30.21875 C 13.59375 -30.570312 13.101562 -30.75 12.5625 -30.75 C 12.007812 -30.75 11.507812 -30.566406 11.0625 -30.203125 C 10.613281 -29.847656 10.390625 -29.316406 10.390625 -28.609375 C 10.390625 -27.890625 10.613281 -27.351562 11.0625 -27 C 11.507812 -26.644531 12.007812 -26.46875 12.5625 -26.46875 Z M 7.515625 -26.5 C 8.003906 -26.5 8.457031 -26.664062 8.875 -27 C 9.289062 -27.332031 9.5 -27.828125 9.5 -28.484375 C 9.5 -29.148438 9.289062 -29.644531 8.875 -29.96875 C 8.457031 -30.300781 7.992188 -30.46875 7.484375 -30.46875 C 7.003906 -30.46875 6.550781 -30.300781 6.125 -29.96875 C 5.707031 -29.644531 5.5 -29.148438 5.5 -28.484375 C 5.5 -27.828125 5.707031 -27.332031 6.125 -27 C 6.550781 -26.664062 7.015625 -26.5 7.515625 -26.5 Z M 7.515625 -26.5 "/></g></g></g><g fill="#ffffff" fill-opacity="1"><g transform="translate(185.796941, 166.36874)"><g><path d="M 10.046875 0.28125 C 11.203125 0.28125 12.148438 -0.0859375 12.890625 -0.828125 C 13.640625 -1.578125 14.046875 -2.625 14.109375 -3.96875 L 14.140625 -9.046875 L 14.109375 -13.671875 C 14.109375 -15.222656 14.140625 -16.21875 14.203125 -16.65625 C 14.222656 -16.9375 14.304688 -17.125 14.453125 -17.21875 C 14.597656 -17.3125 14.71875 -17.359375 14.8125 -17.359375 C 15.414062 -17.359375 16.078125 -17.390625 16.796875 -17.453125 C 17.523438 -17.515625 18.164062 -17.691406 18.71875 -17.984375 C 19.96875 -18.722656 20.59375 -20.015625 20.59375 -21.859375 C 20.59375 -22.929688 20.3125 -23.742188 19.75 -24.296875 C 19.1875 -24.859375 18.554688 -25.234375 17.859375 -25.421875 C 17.171875 -25.609375 16.613281 -25.703125 16.1875 -25.703125 L 5.234375 -25.703125 C 4.117188 -25.703125 3.046875 -25.472656 2.015625 -25.015625 C 0.460938 -24.316406 -0.3125 -23.117188 -0.3125 -21.421875 C -0.3125 -20.515625 -0.0195312 -19.722656 0.5625 -19.046875 C 1.15625 -18.378906 1.753906 -17.929688 2.359375 -17.703125 C 2.671875 -17.578125 3.015625 -17.488281 3.390625 -17.4375 C 3.773438 -17.382812 4.367188 -17.359375 5.171875 -17.359375 C 5.378906 -17.359375 5.59375 -17.328125 5.8125 -17.265625 C 6.03125 -17.203125 6.148438 -17.046875 6.171875 -16.796875 C 6.316406 -13.929688 6.390625 -10.015625 6.390625 -5.046875 L 6.390625 -3.65625 C 6.390625 -3.632812 6.429688 -3.414062 6.515625 -3 C 6.597656 -2.59375 6.765625 -2.132812 7.015625 -1.625 C 7.273438 -1.125 7.644531 -0.679688 8.125 -0.296875 C 8.601562 0.0859375 9.242188 0.28125 10.046875 0.28125 Z M 10.046875 0.28125 "/></g></g></g><g fill="#ffffff" fill-opacity="1"><g transform="translate(206.49247, 166.36874)"><g><path d="M 10.546875 0.5 C 12.773438 0.5 14.351562 0.316406 15.28125 -0.046875 C 16.21875 -0.410156 16.804688 -1.265625 17.046875 -2.609375 L 17.078125 -3.375 C 17.078125 -4.675781 16.6875 -5.578125 15.90625 -6.078125 C 15.125 -6.578125 14.085938 -6.851562 12.796875 -6.90625 C 11.515625 -6.96875 10.578125 -7.007812 9.984375 -7.03125 C 9.648438 -7.03125 9.394531 -7.035156 9.21875 -7.046875 C 9.039062 -7.054688 8.921875 -7.070312 8.859375 -7.09375 C 8.804688 -7.113281 8.78125 -7.15625 8.78125 -7.21875 C 8.820312 -7.632812 8.851562 -8.785156 8.875 -10.671875 C 8.90625 -12.566406 8.921875 -14.140625 8.921875 -15.390625 C 8.921875 -16.640625 8.941406 -17.640625 8.984375 -18.390625 L 8.984375 -19.40625 C 9.003906 -19.695312 9.015625 -19.9375 9.015625 -20.125 C 9.015625 -20.3125 9.023438 -20.46875 9.046875 -20.59375 L 9.046875 -21.046875 L 9.078125 -21.046875 C 9.054688 -21.628906 8.941406 -22.25 8.734375 -22.90625 C 8.535156 -23.570312 8.160156 -24.148438 7.609375 -24.640625 C 7.066406 -25.140625 6.222656 -25.390625 5.078125 -25.390625 C 4.046875 -25.390625 3.238281 -25.15625 2.65625 -24.6875 C 2.082031 -24.226562 1.679688 -23.664062 1.453125 -23 C 1.222656 -22.34375 1.109375 -21.703125 1.109375 -21.078125 L 1.109375 -3.03125 C 1.109375 -1.957031 1.484375 -1.101562 2.234375 -0.46875 C 2.992188 0.15625 3.78125 0.46875 4.59375 0.46875 Z M 10.546875 0.5 "/></g></g></g><g fill="#ffffff" fill-opacity="1"><g transform="translate(223.565486, 166.36874)"><g><path d="M 4.8125 0.28125 C 5.550781 0.28125 6.242188 0.140625 6.890625 -0.140625 C 7.546875 -0.421875 8.078125 -0.9375 8.484375 -1.6875 C 8.898438 -2.445312 9.109375 -3.519531 9.109375 -4.90625 C 9.191406 -7.09375 9.234375 -9.488281 9.234375 -12.09375 C 9.234375 -16.78125 9.179688 -20.097656 9.078125 -22.046875 C 8.992188 -23.054688 8.578125 -23.890625 7.828125 -24.546875 C 7.078125 -25.210938 6.160156 -25.546875 5.078125 -25.546875 C 3.984375 -25.546875 3.085938 -25.195312 2.390625 -24.5 C 1.703125 -23.8125 1.304688 -22.910156 1.203125 -21.796875 C 1.160156 -21.484375 1.128906 -21.171875 1.109375 -20.859375 C 1.085938 -20.554688 1.070312 -20.175781 1.0625 -19.71875 C 1.050781 -19.257812 1.046875 -18.585938 1.046875 -17.703125 L 1.140625 -5.609375 L 1.109375 -4.75 C 1.109375 -3.238281 1.367188 -2.019531 1.890625 -1.09375 C 2.410156 -0.175781 3.382812 0.28125 4.8125 0.28125 Z M 4.8125 0.28125 "/></g></g></g><g fill="#ffffff" fill-opacity="1"><g transform="translate(234.464495, 166.36874)"><g><path d="M 9.796875 0.5 C 11.265625 0.5 12.6875 0.148438 14.0625 -0.546875 C 15.4375 -1.253906 16.578125 -2.296875 17.484375 -3.671875 C 18.390625 -5.046875 18.84375 -6.375 18.84375 -7.65625 C 18.84375 -9.101562 18.203125 -10.140625 16.921875 -10.765625 C 16.304688 -11.023438 15.78125 -11.15625 15.34375 -11.15625 C 14.6875 -11.15625 14.148438 -10.972656 13.734375 -10.609375 C 13.316406 -10.253906 12.957031 -9.878906 12.65625 -9.484375 C 12.425781 -9.210938 12.210938 -8.972656 12.015625 -8.765625 C 11.816406 -8.566406 11.601562 -8.457031 11.375 -8.4375 C 11.039062 -8.4375 10.625 -8.5625 10.125 -8.8125 C 9.632812 -9.070312 9.203125 -9.476562 8.828125 -10.03125 C 8.460938 -10.59375 8.28125 -11.332031 8.28125 -12.25 C 8.300781 -12.757812 8.40625 -13.300781 8.59375 -13.875 C 8.789062 -14.445312 9.0625 -14.945312 9.40625 -15.375 C 9.75 -15.8125 10.140625 -16.03125 10.578125 -16.03125 C 10.859375 -16.03125 11.132812 -15.9375 11.40625 -15.75 C 11.988281 -15.414062 12.585938 -15.25 13.203125 -15.25 C 13.660156 -15.25 14.226562 -15.351562 14.90625 -15.5625 C 15.675781 -15.832031 16.25 -16.269531 16.625 -16.875 C 17.007812 -17.488281 17.203125 -18.164062 17.203125 -18.90625 C 17.203125 -19.71875 16.957031 -20.515625 16.46875 -21.296875 C 15.613281 -22.640625 14.585938 -23.632812 13.390625 -24.28125 C 12.191406 -24.9375 10.953125 -25.265625 9.671875 -25.265625 C 8.285156 -25.265625 6.945312 -24.890625 5.65625 -24.140625 C 4.363281 -23.398438 3.273438 -22.285156 2.390625 -20.796875 C 0.835938 -18.128906 0.0625 -15.1875 0.0625 -11.96875 C 0.0625 -9.59375 0.503906 -7.316406 1.390625 -5.140625 C 2.203125 -3.265625 3.375 -1.851562 4.90625 -0.90625 C 6.445312 0.03125 8.078125 0.5 9.796875 0.5 Z M 9.796875 0.5 "/></g></g></g><g fill="#ffffff" fill-opacity="1"><g transform="translate(253.648019, 166.36874)"><g><path d="M 4.78125 0.5 C 5.789062 0.5 6.753906 0.226562 7.671875 -0.3125 C 8.585938 -0.863281 9.097656 -1.734375 9.203125 -2.921875 C 9.222656 -3.953125 9.234375 -4.8125 9.234375 -5.5 C 9.234375 -6.195312 9.25 -6.71875 9.28125 -7.0625 C 9.3125 -7.414062 9.410156 -7.59375 9.578125 -7.59375 L 10.703125 -7.625 C 10.898438 -7.625 11.023438 -7.609375 11.078125 -7.578125 C 11.128906 -7.546875 11.15625 -7.488281 11.15625 -7.40625 L 11.15625 -6.328125 C 11.15625 -4.503906 11.207031 -3.171875 11.3125 -2.328125 C 11.476562 -1.398438 11.925781 -0.703125 12.65625 -0.234375 C 13.394531 0.234375 14.21875 0.46875 15.125 0.46875 C 15.75 0.46875 16.367188 0.332031 16.984375 0.0625 C 18.328125 -0.519531 19 -1.582031 19 -3.125 C 19 -6.625 19.019531 -9.488281 19.0625 -11.71875 C 19.082031 -13.601562 19.09375 -16.425781 19.09375 -20.1875 C 19.09375 -21.53125 18.878906 -22.570312 18.453125 -23.3125 C 17.703125 -24.632812 16.539062 -25.296875 14.96875 -25.296875 C 14.332031 -25.296875 13.765625 -25.207031 13.265625 -25.03125 C 12.773438 -24.851562 12.4375 -24.65625 12.25 -24.4375 C 11.789062 -23.851562 11.503906 -23.125 11.390625 -22.25 C 11.273438 -21.382812 11.21875 -20.550781 11.21875 -19.75 L 11.28125 -15.5625 C 11.28125 -14.300781 11.175781 -13.671875 10.96875 -13.671875 L 9.984375 -13.640625 C 9.691406 -13.640625 9.515625 -13.675781 9.453125 -13.75 C 9.390625 -13.820312 9.359375 -13.972656 9.359375 -14.203125 L 9.421875 -19.5625 L 9.390625 -21.515625 C 9.390625 -22.441406 9.144531 -23.191406 8.65625 -23.765625 C 8.175781 -24.347656 7.570312 -24.769531 6.84375 -25.03125 C 6.125 -25.289062 5.40625 -25.421875 4.6875 -25.421875 C 3.6875 -25.421875 2.867188 -24.984375 2.234375 -24.109375 C 1.609375 -23.242188 1.273438 -22.070312 1.234375 -20.59375 L 1.109375 -9.046875 C 1.128906 -7.765625 1.140625 -6.207031 1.140625 -4.375 C 1.140625 -3.320312 1.191406 -2.503906 1.296875 -1.921875 C 1.398438 -1.335938 1.660156 -0.820312 2.078125 -0.375 C 2.773438 0.207031 3.675781 0.5 4.78125 0.5 Z M 4.78125 0.5 "/></g></g></g><g fill="#ffffff" fill-opacity="1"><g transform="translate(123.53906, 206.972696)"><g><path d="M 5.296875 -9.265625 C 1.796875 -9.265625 0.6875 -6.421875 0.6875 -4.625 C 0.6875 -1.515625 2.796875 0.1875 5.296875 0.1875 C 6.375 0.1875 7.625 -0.25 8.25 -1.375 L 8.25 -0.625 C 8.25 -0.234375 8.4375 0 8.859375 0 C 9.265625 0 9.515625 -0.234375 9.515625 -0.625 L 9.515625 -11.390625 C 9.515625 -11.8125 9.203125 -12.03125 8.875 -12.03125 C 8.53125 -12.03125 8.203125 -11.8125 8.203125 -11.390625 L 8.203125 -7.8125 C 7.671875 -8.765625 6.5 -9.265625 5.296875 -9.265625 Z M 5.40625 -1.0625 C 4.09375 -1.0625 2 -1.890625 2 -4.6875 C 2 -5.84375 2.65625 -8.03125 5.34375 -8.03125 C 6.984375 -7.953125 8.203125 -6.84375 8.203125 -5.25 L 8.203125 -3.828125 C 8.203125 -2.140625 6.953125 -1.15625 5.40625 -1.0625 Z M 5.40625 -1.0625 "/></g></g></g><g fill="#ffffff" fill-opacity="1"><g transform="translate(134.645024, 206.972696)"><g><path d="M 10.046875 -4.609375 C 9.984375 -7.859375 7.734375 -9.28125 5.3125 -9.28125 C 3 -9.28125 0.71875 -7.625 0.71875 -4.59375 C 0.71875 -1.875 2.5625 0.1875 5.40625 0.1875 C 6.5625 0.203125 7.78125 -0.125 8.609375 -0.90625 C 9.3125 -1.625 8.375 -2.359375 7.734375 -1.78125 C 7.03125 -1.234375 6.171875 -1.03125 5.34375 -1.03125 C 3.546875 -1.03125 2.28125 -2.296875 2.046875 -3.78125 L 9.15625 -3.78125 C 9.90625 -3.78125 10.046875 -4.21875 10.046875 -4.609375 Z M 2 -4.875 C 2.15625 -7.03125 3.703125 -8.0625 5.40625 -8.0625 C 6.90625 -8.0625 8.609375 -7.03125 8.78125 -4.875 Z M 2 -4.875 "/></g></g></g><g fill="#ffffff" fill-opacity="1"><g transform="translate(145.786991, 206.972696)"><g><path d="M 2.484375 -3.859375 L 2.484375 -8.65625 C 2.484375 -9.046875 2.21875 -9.28125 1.8125 -9.28125 C 1.40625 -9.28125 1.171875 -9.046875 1.171875 -8.65625 L 1.171875 -3.859375 C 1.171875 -1.265625 3.171875 0.1875 5.25 0.1875 C 6.65625 0.1875 8.046875 -0.390625 8.6875 -1.703125 L 8.6875 -0.640625 C 8.6875 -0.21875 9.015625 0 9.34375 0 C 9.671875 0 9.984375 -0.21875 9.984375 -0.625 L 9.984375 -8.65625 C 9.984375 -9.046875 9.71875 -9.28125 9.3125 -9.28125 C 8.890625 -9.28125 8.65625 -9.046875 8.65625 -8.65625 L 8.65625 -4.453125 C 8.65625 -2.484375 7.015625 -1.046875 5.28125 -1.046875 C 3.8125 -1.046875 2.484375 -2.203125 2.484375 -3.859375 Z M 2.484375 -3.859375 "/></g></g></g><g fill="#ffffff" fill-opacity="1"><g transform="translate(157.342959, 206.972696)"><g><path d="M 5.171875 -9.109375 L 3.203125 -9.109375 L 3.203125 -11.25 C 3.203125 -12.09375 1.90625 -12.109375 1.90625 -11.25 L 1.90625 -9.109375 L 0.71875 -9.109375 C -0.078125 -9.109375 -0.125 -8.015625 0.71875 -8.015625 L 1.90625 -8.015625 L 1.90625 -3.109375 C 1.90625 -1.40625 2.4375 0.1875 4.59375 0.1875 C 5.078125 0.1875 5.53125 0.125 5.96875 -0.125 C 6.78125 -0.578125 6.1875 -1.640625 5.4375 -1.203125 C 5.25 -1.09375 4.859375 -1.015625 4.59375 -1.015625 C 3.359375 -1.015625 3.203125 -2.09375 3.203125 -3.109375 L 3.203125 -8.015625 L 5.171875 -8.015625 C 5.96875 -8.015625 5.96875 -9.109375 5.171875 -9.109375 Z M 5.171875 -9.109375 "/></g></g></g><g fill="#ffffff" fill-opacity="1"><g transform="translate(164.27294, 206.972696)"><g><path d="M 0.5 -2.03125 C 0.859375 -0.234375 3.171875 0.1875 4.65625 0.1875 C 6.15625 0.1875 8.75 -0.40625 8.75 -2.6875 C 8.75 -4.9375 6.640625 -5.109375 4.65625 -5.296875 C 3.21875 -5.40625 1.890625 -5.375 1.890625 -6.53125 C 1.890625 -7.65625 3.453125 -8.09375 4.5 -8.09375 C 5.3125 -8.09375 6.828125 -8.03125 7.21875 -6.984375 C 7.453125 -6.296875 8.6875 -6.640625 8.4375 -7.453125 C 7.8125 -9.078125 5.890625 -9.28125 4.5 -9.28125 C 2.765625 -9.28125 0.578125 -8.484375 0.578125 -6.546875 C 0.578125 -4.34375 2.65625 -4.171875 4.609375 -4 C 6.0625 -3.890625 7.4375 -3.828125 7.4375 -2.6875 C 7.4375 -1.4375 5.546875 -0.984375 4.65625 -0.984375 C 3.34375 -0.984375 1.9375 -1.453125 1.765625 -2.265625 C 1.609375 -3.171875 0.28125 -2.796875 0.5 -2.03125 Z M 0.5 -2.03125 "/></g></g></g><g fill="#ffffff" fill-opacity="1"><g transform="translate(173.902914, 206.972696)"><g><path d="M 7.703125 -7.03125 C 8.1875 -6.46875 9.140625 -7.203125 8.640625 -7.78125 C 7.6875 -8.859375 6.65625 -9.28125 5.375 -9.28125 C 1.78125 -9.28125 0.703125 -6.390625 0.703125 -4.578125 C 0.703125 -1.90625 2.578125 0.1875 5.296875 0.1875 C 6.609375 0.1875 7.9375 -0.375 8.796875 -1.4375 C 9.390625 -2.125 8.328125 -2.8125 7.90625 -2.21875 C 7.265625 -1.375 6.25 -1.015625 5.3125 -1.015625 C 3.3125 -1.015625 2.015625 -2.609375 2.015625 -4.53125 C 2.015625 -6.546875 3.328125 -8.125 5.25 -8.125 C 6.140625 -8.125 7.03125 -7.8125 7.703125 -7.03125 Z M 7.703125 -7.03125 "/></g></g></g><g fill="#ffffff" fill-opacity="1"><g transform="translate(183.586881, 206.972696)"><g><path d="M 8.71875 -5.25 L 8.71875 -0.640625 C 8.71875 -0.25 8.984375 0 9.375 0 C 9.796875 0 10.03125 -0.25 10.03125 -0.640625 L 10.03125 -5.25 C 10.03125 -7.84375 8.03125 -9.28125 5.9375 -9.28125 C 4.59375 -9.28125 3.1875 -8.765625 2.53125 -7.5 L 2.53125 -11.453125 C 2.53125 -11.828125 2.203125 -12.03125 1.875 -12.03125 C 1.53125 -12.03125 1.203125 -11.828125 1.203125 -11.453125 L 1.203125 -0.640625 C 1.203125 -0.25 1.46875 0 1.890625 0 C 2.296875 0 2.53125 -0.25 2.53125 -0.640625 L 2.53125 -4.984375 C 2.53125 -6.84375 4.171875 -8.0625 5.921875 -8.0625 C 7.375 -8.0625 8.71875 -6.90625 8.71875 -5.25 Z M 8.71875 -5.25 "/></g></g></g><g fill="#ffffff" fill-opacity="1"><g transform="translate(195.196843, 206.972696)"><g/></g></g><g fill="#ffffff" fill-opacity="1"><g transform="translate(200.110832, 206.972696)"><g><path d="M 1.09375 -11.265625 L 0.28125 -9.578125 C -0.109375 -8.84375 1.0625 -8.265625 1.421875 -9.046875 L 2.15625 -10.78125 C 2.484375 -11.515625 1.5 -12.0625 1.09375 -11.265625 Z M 1.09375 -11.265625 "/></g></g></g><g fill="#ffffff" fill-opacity="1"><g transform="translate(202.720829, 206.972696)"><g><path d="M 8.71875 -5.25 L 8.71875 -0.625 C 8.71875 -0.234375 8.984375 0 9.375 0 C 9.796875 0 10.03125 -0.234375 10.03125 -0.625 L 10.03125 -5.25 C 10.03125 -7.84375 8.03125 -9.28125 5.9375 -9.28125 C 4.53125 -9.28125 3.15625 -8.734375 2.5 -7.421875 L 2.5 -8.453125 C 2.5 -8.890625 2.171875 -9.109375 1.859375 -9.109375 C 1.53125 -9.109375 1.203125 -8.890625 1.203125 -8.484375 L 1.203125 -0.625 C 1.203125 -0.234375 1.46875 0 1.890625 0 C 2.296875 0 2.53125 -0.234375 2.53125 -0.625 L 2.53125 -4.65625 C 2.53125 -6.625 4.171875 -8.0625 5.921875 -8.0625 C 7.375 -8.0625 8.71875 -6.90625 8.71875 -5.25 Z M 8.71875 -5.25 "/></g></g></g><g fill="#ffffff" fill-opacity="1"><g transform="translate(214.330791, 206.972696)"><g/></g></g><g fill="#ffffff" fill-opacity="1"><g transform="translate(219.24478, 206.972696)"><g><path d="M 7.703125 -7.03125 C 8.1875 -6.46875 9.140625 -7.203125 8.640625 -7.78125 C 7.6875 -8.859375 6.65625 -9.28125 5.375 -9.28125 C 1.78125 -9.28125 0.703125 -6.390625 0.703125 -4.578125 C 0.703125 -1.90625 2.578125 0.1875 5.296875 0.1875 C 6.609375 0.1875 7.9375 -0.375 8.796875 -1.4375 C 9.390625 -2.125 8.328125 -2.8125 7.90625 -2.21875 C 7.265625 -1.375 6.25 -1.015625 5.3125 -1.015625 C 3.3125 -1.015625 2.015625 -2.609375 2.015625 -4.53125 C 2.015625 -6.546875 3.328125 -8.125 5.25 -8.125 C 6.140625 -8.125 7.03125 -7.8125 7.703125 -7.03125 Z M 7.703125 -7.03125 "/></g></g></g><g fill="#ffffff" fill-opacity="1"><g transform="translate(228.928747, 206.972696)"><g><path d="M 8.71875 -5.25 L 8.71875 -0.640625 C 8.71875 -0.25 8.984375 0 9.375 0 C 9.796875 0 10.03125 -0.25 10.03125 -0.640625 L 10.03125 -5.25 C 10.03125 -7.84375 8.03125 -9.28125 5.9375 -9.28125 C 4.59375 -9.28125 3.1875 -8.765625 2.53125 -7.5 L 2.53125 -11.453125 C 2.53125 -11.828125 2.203125 -12.03125 1.875 -12.03125 C 1.53125 -12.03125 1.203125 -11.828125 1.203125 -11.453125 L 1.203125 -0.640625 C 1.203125 -0.25 1.46875 0 1.890625 0 C 2.296875 0 2.53125 -0.25 2.53125 -0.640625 L 2.53125 -4.984375 C 2.53125 -6.84375 4.171875 -8.0625 5.921875 -8.0625 C 7.375 -8.0625 8.71875 -6.90625 8.71875 -5.25 Z M 8.71875 -5.25 "/></g></g></g><g fill="#ffffff" fill-opacity="1"><g transform="translate(240.538709, 206.972696)"><g><path d="M 2.390625 -11.296875 L 2.390625 -11.390625 C 2.390625 -11.8125 2.046875 -12.03125 1.734375 -12.03125 C 1.390625 -12.03125 1.046875 -11.8125 1.046875 -11.390625 L 1.046875 -11.296875 C 1.046875 -10.890625 1.390625 -10.6875 1.703125 -10.6875 C 2.046875 -10.6875 2.390625 -10.890625 2.390625 -11.296875 Z M 1.0625 -8.515625 L 1.0625 -0.59375 C 1.0625 -0.203125 1.390625 0 1.734375 0 C 2.046875 0 2.375 -0.203125 2.375 -0.59375 L 2.375 -8.53125 C 2.375 -8.90625 2.046875 -9.109375 1.734375 -9.109375 C 1.40625 -9.109375 1.0625 -8.90625 1.0625 -8.515625 Z M 1.0625 -8.515625 "/></g></g></g><g fill="#ffffff" fill-opacity="1"><g transform="translate(244.174703, 206.972696)"><g><path d="M 2.375 -0.609375 L 2.375 -11.40625 C 2.375 -11.75 2.09375 -12.03125 1.734375 -12.03125 C 1.328125 -12.03125 1.0625 -11.75 1.0625 -11.40625 L 1.0625 -0.609375 C 1.0625 -0.265625 1.328125 0 1.734375 0 C 2.09375 0 2.375 -0.265625 2.375 -0.609375 Z M 2.375 -0.609375 "/></g></g></g><g fill="#ffffff" fill-opacity="1"><g transform="translate(247.810696, 206.972696)"><g><path d="M 2.375 -0.609375 L 2.375 -11.40625 C 2.375 -11.75 2.09375 -12.03125 1.734375 -12.03125 C 1.328125 -12.03125 1.0625 -11.75 1.0625 -11.40625 L 1.0625 -0.609375 C 1.0625 -0.265625 1.328125 0 1.734375 0 C 2.09375 0 2.375 -0.265625 2.375 -0.609375 Z M 2.375 -0.609375 "/></g></g></g></svg>